<svg width="25" height="25" viewBox="0 0 25 25" fill="none" xmlns="http://www.w3.org/2000/svg">
<mask id="mask0_754_178" style="mask-type:alpha" maskUnits="userSpaceOnUse" x="0" y="0" width="25" height="25">
<rect x="0.983398" y="0.857422" width="24" height="24" fill="#D9D9D9"/>
</mask>
<g mask="url(#mask0_754_178)">
<path d="M11.9834 17.8574H13.9834V13.8574H17.9834V11.8574H13.9834V7.85742H11.9834V11.8574H7.9834V13.8574H11.9834V17.8574ZM12.9834 22.8574C11.6001 22.8574 10.3001 22.5949 9.0834 22.0699C7.86673 21.5449 6.8084 20.8324 5.9084 19.9324C5.0084 19.0324 4.2959 17.9741 3.7709 16.7574C3.2459 15.5408 2.9834 14.2408 2.9834 12.8574C2.9834 11.4741 3.2459 10.1741 3.7709 8.95742C4.2959 7.74076 5.0084 6.68242 5.9084 5.78242C6.8084 4.88242 7.86673 4.16992 9.0834 3.64492C10.3001 3.11992 11.6001 2.85742 12.9834 2.85742C14.3667 2.85742 15.6667 3.11992 16.8834 3.64492C18.1001 4.16992 19.1584 4.88242 20.0584 5.78242C20.9584 6.68242 21.6709 7.74076 22.1959 8.95742C22.7209 10.1741 22.9834 11.4741 22.9834 12.8574C22.9834 14.2408 22.7209 15.5408 22.1959 16.7574C21.6709 17.9741 20.9584 19.0324 20.0584 19.9324C19.1584 20.8324 18.1001 21.5449 16.8834 22.0699C15.6667 22.5949 14.3667 22.8574 12.9834 22.8574Z" fill="white"/>
</g>
</svg>
